<?xml version="1.0" standalone="no"?>
<!DOCTYPE svg PUBLIC "-//W3C//DTD SVG 20010904//EN"
 "http://www.w3.org/TR/2001/REC-SVG-20010904/DTD/svg10.dtd">
<svg version="1.0" xmlns="http://www.w3.org/2000/svg"
 width="1024.000000pt" height="1024.000000pt" viewBox="0 0 1024.000000 1024.000000"
 preserveAspectRatio="xMidYMid meet">
<metadata>
Created by potrace 1.11, written by Peter Selinger 2001-2013
</metadata>
<g transform="translate(0.000000,1024.000000) scale(0.100000,-0.100000)"
fill="#000000" stroke="none">
<path d="M4870 9544 c-19 -2 -87 -9 -150 -14 -310 -28 -690 -111 -1000 -219
-1127 -389 -2036 -1184 -2554 -2231 -250 -506 -384 -955 -453 -1520 -25 -207
-25 -773 0 -980 77 -631 231 -1109 549 -1706 45 -85 49 -95 117 -301 57 -172
61 -191 72 -331 22 -291 -24 -606 -128 -872 -75 -193 -210 -428 -337 -586
l-55 -69 42 -3 c36 -3 44 -8 57 -35 10 -21 31 -40 63 -56 43 -21 61 -24 162
-23 436 4 1120 126 1640 292 88 29 183 58 210 67 58 18 210 19 264 2 20 -6 79
-28 131 -49 383 -154 792 -255 1225 -302 160 -17 730 -17 890 0 465 51 893
160 1300 334 1410 602 2414 1870 2675 3378 46 268 55 390 55 750 0 360 -9 482
-55 750 -261 1508 -1264 2775 -2675 3378 -388 166 -806 276 -1245 328 -127 15
-710 28 -800 18z m-1783 -3909 c90 -31 159 -68 225 -123 387 -323 309 -935
-147 -1148 -394 -183 -863 52 -954 478 -17 75 -14 232 4 303 67 262 286 467
553 515 83 16 232 4 319 -25z m2228 5 c291 -89 485 -353 485 -659 0 -116 -17
-188 -69 -296 -49 -101 -111 -178 -192 -240 -253 -191 -585 -191 -838 0 -81
62 -143 139 -192 240 -52 108 -69 180 -69 296 0 337 235 619 568 679 74 14
228 4 307 -20z m2240 0 c227 -70 411 -263 470 -495 18 -71 21 -228 4 -303 -45
-211 -191 -391 -391 -481 -449 -202 -958 129 -958 624 0 330 239 616 563 675
79 14 232 4 312 -20z"/>
</g>
</svg>
