<?xml version="1.0" encoding="iso-8859-1"?>
<!-- Generator: Adobe Illustrator 16.0.0, SVG Export Plug-In . SVG Version: 6.00 Build 0)  -->
<!DOCTYPE svg PUBLIC "-//W3C//DTD SVG 1.1//EN" "http://www.w3.org/Graphics/SVG/1.1/DTD/svg11.dtd">
<svg xmlns="http://www.w3.org/2000/svg" xmlns:xlink="http://www.w3.org/1999/xlink" version="1.1" id="Capa_1" x="0px" y="0px" width="512px" height="512px" viewBox="0 0 393.789 393.789" style="enable-background:new 0 0 393.789 393.789;" xml:space="preserve">
<g>
	<g>
		<path d="M304.9,190.873c-5.449,0-9.865,4.422-9.865,9.864v141.033c0,17.805-14.482,32.283-32.285,32.283H52.015    c-17.802,0-32.284-14.479-32.284-32.283V131.037c0-17.795,14.482-32.285,32.284-32.285h141.033c5.448,0,9.866-4.412,9.866-9.865    c0-5.443-4.418-9.865-9.866-9.865H52.015C23.334,79.022,0,102.356,0,131.038v210.734c0,28.682,23.334,52.014,52.015,52.014H262.75    c28.682,0,52.016-23.332,52.016-52.014V200.737C314.766,195.295,310.348,190.873,304.9,190.873z" fill="#ffffff"/>
		<path d="M304.9,0.003c-49.016,0-88.895,39.876-88.895,88.884c0,49.02,39.879,88.895,88.895,88.895    c49.012,0,88.889-39.875,88.889-88.895C393.789,39.879,353.912,0.003,304.9,0.003z M304.9,158.051    c-38.137,0-69.164-31.021-69.164-69.164c0-38.131,31.027-69.153,69.164-69.153c38.133,0,69.158,31.022,69.158,69.153    C374.059,127.029,343.033,158.051,304.9,158.051z" fill="#ffffff"/>
	</g>
</g>
<g>
</g>
<g>
</g>
<g>
</g>
<g>
</g>
<g>
</g>
<g>
</g>
<g>
</g>
<g>
</g>
<g>
</g>
<g>
</g>
<g>
</g>
<g>
</g>
<g>
</g>
<g>
</g>
<g>
</g>
</svg>
