<svg width="300px" height="300px" viewBox="0 0 300 300">
  <g stroke="none" stroke-width="1" fill="none" fill-rule="evenodd">
    <g fill="#ffffff">
      <path
        d="M37.4964043,228.320168 C40.1471652,225.669407 40.1471652,221.371169 37.4964043,218.71973 C34.8456434,216.069648 30.5474058,216.069648 27.8959662,218.71973 L1.98910615,244.627947 C-0.661654716,247.278708 -0.661654716,251.576946 1.98910615,254.228386 C3.31414717,255.553427 5.0519059,256.216626 6.78898581,256.216626 C8.52606572,256.216626 10.2638244,255.553427 11.5888655,254.228386 L37.4964043,228.320168 Z M58.9047772,240.128103 C56.2540163,237.478021 51.9557787,237.478021 49.3050179,240.128103 L12.9641386,276.469661 C10.3133777,279.120422 10.3133777,283.418659 12.9641386,286.070099 C14.2898584,287.39514 16.0269383,288.058339 17.7640182,288.058339 C19.5010981,288.058339 21.2388569,287.39514 22.5638979,286.070099 L58.9047772,249.728541 C61.555538,247.077101 61.555538,242.778864 58.9047772,240.128103 Z M295.678476,9.04760014 C295.04175,6.75185796 293.24765,4.95911546 290.953266,4.32171099 C266.213962,-2.5444724 239.41718,-1.20857038 213.459409,8.18279365 C193.34553,15.4603371 173.783526,27.6599464 159.789138,41.6550134 L138.6808,62.7633514 L62.2099128,74.7084062 C60.7884805,74.9303777 59.4749793,75.5983287 58.4574401,76.6151891 L9.54835659,125.524273 C7.64361012,127.429698 7.04489793,130.280029 8.02306602,132.789597 C9.00123412,135.299165 11.3716456,136.992801 14.0624564,137.106163 L62.3076617,139.135132 L50.2159836,151.22681 C47.5652227,153.877571 47.5652227,158.175809 50.2159836,160.827248 L57.2735919,167.884178 L36.1944429,200.19495 C34.4403927,202.883725 34.8089876,206.433233 37.0796137,208.703859 L91.2970071,262.920573 C93.5676332,265.190521 97.1171412,265.561152 99.8065943,263.805744 L132.116009,242.725916 L139.173617,249.783525 C141.824378,252.433607 146.122616,252.433607 148.774056,249.783525 L160.865734,237.691846 L162.894703,285.935694 C163.008064,288.627184 164.7017,290.996916 167.211268,291.975085 C168.012267,292.287338 168.847205,292.438713 169.675356,292.438713 C171.442982,292.438713 173.179383,291.747004 174.476593,290.450473 L223.385677,241.541389 C224.403216,240.52385 225.070488,239.20967 225.293138,237.788917 L237.238872,161.318708 L258.346531,140.21037 C272.340919,126.215982 284.541207,106.653978 291.818751,86.5407782 C301.208757,60.5836861 302.543981,33.7862247 295.678476,9.04760014 Z M97.0017431,249.425112 L50.5750751,202.998444 L67.0844618,177.69369 L89.8952603,200.504489 L87.2125952,203.187154 C84.5611556,205.837914 84.5611556,210.136152 87.2125952,212.787592 C89.8633561,215.437674 94.1615937,215.437674 96.8130334,212.787592 L99.4956984,210.104927 L122.306497,232.915725 L97.0017431,249.425112 L97.0017431,249.425112 Z M226.072415,153.284968 C226.069699,153.287683 202.472837,176.884546 202.472837,176.884546 C199.822076,179.535307 199.822076,183.833545 202.472837,186.484984 C205.123597,189.135066 209.421835,189.135066 212.073275,186.484984 L220.953493,177.604766 L212.220577,233.507649 L175.809101,269.919804 L173.905712,224.652547 L192.873756,205.684503 C195.524517,203.033742 195.524517,198.735505 192.873756,196.084065 C190.222995,193.433983 185.924758,193.433983 183.273318,196.084065 L162.215891,217.141492 C162.204351,217.153032 143.973497,235.383207 143.973497,235.383207 L137.920531,229.33024 C137.851292,229.258965 109.094779,200.504489 109.094779,200.504489 L191.193696,118.40625 C193.844457,115.755489 193.845136,111.457251 191.193696,108.805812 C188.543614,106.156409 184.245377,106.15573 181.593937,108.805812 L99.4950196,190.905408 L70.8783421,162.288731 C70.8104609,162.218134 64.6169802,156.02669 64.6169802,156.02669 L82.8254333,137.818237 C82.8369731,137.807376 103.916122,116.727548 103.916122,116.727548 C106.567562,114.076787 106.567562,109.778549 103.916122,107.12711 C101.26604,104.477028 96.9671237,104.477028 94.3163628,107.12711 L75.3483191,126.095153 L30.081062,124.191086 L66.4925377,87.7796101 L122.395421,79.0473725 L113.515203,87.9269123 L123.114962,97.5273504 L146.635119,74.0071934 C146.68603,73.9576401 169.388218,51.2540939 169.388218,51.2540939 C188.278199,32.3647924 233.131381,4.37669477 283.566433,16.4330747 C295.622813,66.8688064 267.634716,111.722667 248.745414,130.61129 L226.072415,153.284968 Z M71.680019,262.503783 L45.7724802,288.411322 C43.1217193,291.062082 43.1217193,295.36032 45.7724802,298.01176 C47.0982,299.336801 48.83528,300 50.5723599,300 C52.3094398,300 54.0471985,299.336801 55.3722395,298.01176 L81.2797784,272.104221 C83.9305392,269.45346 83.9305392,265.155222 81.2797784,262.503783 C78.6296963,259.853022 74.3314587,259.853022 71.680019,262.503783 Z M208.33913,46.5859038 C202.319425,52.6062874 199.004107,60.6101597 199.004107,69.123141 C199.004107,77.6368012 202.319425,85.6406735 208.33913,91.6603783 C214.552296,97.8735445 222.714332,100.979788 230.876367,100.979788 C239.038403,100.979788 247.199759,97.8735445 253.412926,91.6603783 C259.433309,85.6406735 262.747948,77.6368012 262.747948,69.123141 C262.747948,60.6101597 259.43263,52.6062874 253.412926,46.5859038 C240.986593,34.1595713 220.76682,34.1595713 208.33913,46.5859038 Z M243.812827,82.0601523 C236.679192,89.1951452 225.072864,89.1944664 217.93855,82.0601523 C214.482718,78.6043204 212.580008,74.0107996 212.580008,69.1226744 C212.580008,64.2359068 214.483397,59.6410283 217.93855,56.1851964 C221.505707,52.6180394 226.190188,50.8348002 230.876028,50.8348002 C235.560509,50.8348002 240.247027,52.6187182 243.812827,56.1851964 C247.268659,59.6410283 249.172048,64.2352279 249.172048,69.1226744 C249.172048,74.0107996 247.268659,78.6043204 243.812827,82.0601523 L243.812827,82.0601523 Z"></path>
    </g>
  </g>
</svg>
