<?xml version="1.0" encoding="iso-8859-1"?>
<!-- Generator: Adobe Illustrator 16.0.0, SVG Export Plug-In . SVG Version: 6.00 Build 0)  -->
<!DOCTYPE svg PUBLIC "-//W3C//DTD SVG 1.1//EN" "http://www.w3.org/Graphics/SVG/1.1/DTD/svg11.dtd">
<svg xmlns="http://www.w3.org/2000/svg" xmlns:xlink="http://www.w3.org/1999/xlink" version="1.1" id="Capa_1" x="0px" y="0px" width="512px" height="512px" viewBox="0 0 612 612" style="enable-background:new 0 0 612 612;" xml:space="preserve">
<g>
	<g id="Rectangle_4_copy_2">
		<g>
			<path d="M379.862,263.793H232.138v189.932h147.725V263.793z M358.759,432.622H253.241V284.897h105.518V432.622z M200.483,263.793     H52.759v189.932h147.724V263.793z M179.379,432.622H73.862V284.897h105.517V432.622z M559.241,263.793H411.518v189.932h147.724     V263.793z M538.138,432.622H432.621V284.897h105.517V432.622z M137.172,137.173c-11.66,0-21.104,9.444-21.104,21.104     s9.444,21.104,21.104,21.104c11.649,0,21.104-9.444,21.104-21.104C158.276,146.627,148.832,137.173,137.172,137.173z      M569.793,94.966H42.207C18.898,94.966,0,113.864,0,137.173v337.654c0,23.311,18.898,42.207,42.207,42.207h527.586     c23.309,0,42.207-18.896,42.207-42.207V137.173C612,113.864,593.102,94.966,569.793,94.966z M590.896,453.726     c0,23.309-8.347,42.205-31.655,42.205H63.311c-23.309,0-42.207-18.896-42.207-42.205V221.587h569.793V453.726z M590.896,200.483     H21.104v-42.207c0-23.309,18.898-42.207,42.207-42.207h485.379c23.309,0,42.207,18.898,42.207,42.207V200.483z M73.862,137.173     c-11.649,0-21.104,9.455-21.104,21.104c0,11.66,9.444,21.104,21.104,21.104c11.659,0,21.103-9.444,21.103-21.104     C94.965,146.627,85.521,137.173,73.862,137.173z M200.483,137.173c-11.649,0-21.104,9.444-21.104,21.104     s9.444,21.104,21.104,21.104s21.104-9.444,21.104-21.104C221.586,146.627,212.143,137.173,200.483,137.173z" fill="#ffffff"/>
		</g>
	</g>
</g>
<g>
</g>
<g>
</g>
<g>
</g>
<g>
</g>
<g>
</g>
<g>
</g>
<g>
</g>
<g>
</g>
<g>
</g>
<g>
</g>
<g>
</g>
<g>
</g>
<g>
</g>
<g>
</g>
<g>
</g>
</svg>
