<svg width="300px" height="300px" viewBox="0 0 300 300">
  <g stroke="none" stroke-width="1" fill="none" fill-rule="evenodd">
    <g fill="#ffffff">
      <path
        d="M279.464728,245.22402 C247.583845,230.826471 246.3711,169.027451 246.347571,167.468137 L246.347571,126.008333 C246.347571,86.1053922 221.964237,51.7931373 187.314728,37.1833333 C187.240218,16.6681373 170.531394,0.00147058824 150.001002,0.00147058824 C129.47012,0.00147058824 112.761786,16.6691176 112.686786,37.1823529 C78.0387472,51.7921569 53.6549237,86.1044118 53.6549237,126.007353 L53.6549237,167.467157 C53.6323747,169.026471 52.4186492,230.82549 20.5367864,245.223039 C16.9049237,246.863725 14.9088452,250.817157 15.7485511,254.713235 C16.5872766,258.609804 20.0328648,261.392647 24.0186492,261.392647 L104.842179,261.392647 C106.499041,270.507353 110.808845,278.986765 117.400512,285.854902 C126.155414,294.976471 137.733355,300 149.999532,300 C162.266688,300 173.84463,294.976471 182.598551,285.854902 C189.191198,278.986275 193.501002,270.506373 195.156884,261.392647 L275.980414,261.392647 C279.966198,261.392647 283.411296,258.610294 284.251002,254.713235 C285.091688,250.817157 283.09659,246.864216 279.464728,245.22402 L279.464728,245.22402 Z M237.468159,215.618627 C240.81963,225.779412 245.565218,235.983333 252.29463,244.47451 L47.7063943,244.47451 C54.4348256,235.984314 59.1804139,225.780882 62.5318845,215.618627 L237.468159,215.618627 L237.468159,215.618627 Z M150.001002,16.9205882 C159.287767,16.9205882 167.139728,23.1607843 169.59659,31.6666667 C163.267179,30.3539216 156.713257,29.6617647 150.001002,29.6617647 C143.288747,29.6617647 136.734826,30.3534314 130.405414,31.6666667 C132.862767,23.1612745 140.714728,16.9205882 150.001002,16.9205882 L150.001002,16.9205882 Z M70.5740413,167.519118 L70.5740413,126.006863 C70.5740413,82.2112745 106.204433,46.5808824 150.001002,46.5808824 C193.797571,46.5808824 229.427963,82.2112745 229.427963,126.006863 L229.427963,167.588235 C229.439237,168.860784 229.637277,182.234804 233.007865,198.698529 L66.9921786,198.698529 C70.3647276,182.219118 70.5637472,168.821569 70.5740413,167.519118 L70.5740413,167.519118 Z M150.001002,283.082353 C137.088747,283.082353 125.81963,273.772549 122.202473,261.393137 L177.798551,261.393137 C174.181394,273.772549 162.914237,283.082353 150.001002,283.082353 Z M150.001002,58.45 C113.603943,58.45 83.9926688,88.0602941 83.9926688,124.456863 C83.9926688,129.128922 87.7804139,132.916667 92.4524727,132.916667 C97.1245315,132.916667 100.912277,129.128922 100.912277,124.456863 C100.912277,97.3897059 122.933355,75.3691176 150.001492,75.3691176 C154.673551,75.3691176 158.461296,71.5813725 158.461296,66.9093137 C158.460806,62.2367647 154.673061,58.45 150.001002,58.45 Z"></path>
    </g>
  </g>
</svg>
