<svg width="300px" height="300px" viewBox="0 0 300 300">
  <g stroke="none" stroke-width="1" fill="none" fill-rule="evenodd">
    <g fill="#fff">
      <path
        d="M297.881704,58.4563735 C296.924591,57.4909542 295.21711,56.3400193 292.522981,56.3400193 C289.363678,56.3400193 280.971175,56.3400193 230.001465,99.7118979 C228.976976,100.583175 227.943257,101.466451 226.905847,102.356187 C217.798971,78.6000416 201.798484,57.420809 181.180413,42.1014686 C157.539638,24.5365592 129.389265,15.2469363 99.7750735,15.2395526 L99.7519994,15.2395526 C79.766158,15.2395526 55.4719252,22.2226909 36.3472083,33.4671495 C12.9039473,47.2488334 -0.00461357822,65.6804051 1.23691996e-06,85.3644376 C0.00738494115,109.12889 13.410654,119.069202 24.1807096,127.055601 C32.9627028,133.568951 39.89877,138.712624 39.9024619,149.985694 C39.9052307,161.257842 32.9728554,166.3969 24.195477,172.903789 C13.4291133,180.885573 0.0286130908,190.820347 0.035996795,214.587568 C0.0415345732,234.268832 12.9584022,252.705018 36.4062779,266.498701 C55.5448393,277.757004 79.8519936,284.75491 99.8415269,284.760447 L99.8802913,284.760447 C136.157353,284.760447 170.259914,270.758175 195.909057,245.331467 C221.23147,220.229641 235.314963,186.957747 235.685071,151.502122 C244.283395,141.717791 252.613136,131.99253 260.217429,122.82843 C273.227515,107.15098 283.231512,94.2147301 289.951606,84.380559 C298.854507,71.3547818 302.753103,63.3656138 297.881704,58.4563735 L297.881704,58.4563735 Z M188.112788,237.465976 C164.550465,260.824324 133.219562,273.684891 99.8812143,273.684891 L99.8461417,273.684891 C64.1210117,273.674738 11.1217057,248.854417 11.1115531,214.583876 C11.1060154,196.395044 20.6679123,189.305765 30.7918938,181.80023 C40.2550337,174.783865 50.9807871,166.831615 50.9770952,149.982002 C50.9715575,133.135158 40.2430352,125.178294 30.7771264,118.15916 C20.6485301,110.647164 11.0810954,103.552347 11.0755576,85.3616687 C11.0709428,64.3171887 30.4236315,49.7971344 41.9606694,43.0142791 C59.2182321,32.8681465 81.9000485,26.314186 99.7519994,26.314186 L99.7713817,26.314186 C126.990484,26.3215697 152.857446,34.8552859 174.575689,50.9905256 C194.605833,65.8733044 209.895638,86.7654955 217.949414,110.105385 C193.929301,131.078796 167.918357,155.260428 148.547209,174.694337 C116.373641,178.858746 111.990489,200.301024 108.785962,216.053234 C106.057683,229.465732 104.286517,235.950471 93.9336405,236.781137 C91.3825707,236.986035 89.3049809,238.911336 88.9071839,241.439332 C88.5084638,243.966404 89.8938313,246.438099 92.2584626,247.417363 C92.923919,247.692406 108.758273,254.162377 127.258144,254.1633 L127.264604,254.1633 C140.156552,254.1633 151.215495,251.038147 160.133164,244.875523 C171.121962,237.281383 178.573042,225.241331 182.317503,209.095015 C194.974095,196.289826 209.436003,180.848655 223.736392,164.943233 C220.445106,192.327546 208.087554,217.664727 188.112788,237.465976 L188.112788,237.465976 Z M171.191184,208.046529 C165.322985,231.301506 150.557422,243.08959 127.263681,243.088667 L127.258144,243.088667 C121.115825,243.088667 115.233781,242.250616 110.288545,241.205822 C116.195509,235.181642 118.040512,226.116299 119.638161,218.262807 C122.68117,203.303422 125.558969,189.146092 149.10191,185.782815 L171.191184,208.046529 L171.191184,208.046529 Z M247.664208,120.586553 C225.711533,146.740556 199.139427,176.111086 177.265203,198.442176 L173.878852,195.029059 L158.937004,179.969071 C178.769633,160.226892 204.212032,136.68672 227.949718,116.085262 C230.716761,113.683712 233.466268,111.31262 236.176088,109.001521 C263.723765,85.5074969 278.160753,75.2829125 285.525075,70.8333077 C281.127156,78.2419319 270.996714,92.7887522 247.664208,120.586553 Z M78.2866483,194.687562 C73.9985621,191.299365 68.6241483,189.433134 63.1537465,189.433134 C55.7192793,189.433134 48.7961336,192.736419 44.1591673,198.497554 C40.1045908,203.540624 38.2688173,209.849999 38.9924203,216.261823 C39.7169463,222.687492 42.9223969,228.443089 48.0171528,232.469977 C52.305239,235.859097 57.6778068,237.725328 63.1472857,237.725328 C70.5872907,237.725328 77.5113593,234.415583 82.1446337,228.64891 C86.1955185,223.614147 88.029446,217.312155 87.3086119,210.9031 C86.5859318,204.477431 83.3823272,198.718142 78.2866483,194.687562 Z M73.5121605,221.709151 C70.9906255,224.849071 67.2120149,226.650695 63.1472857,226.650695 C60.1171981,226.650695 57.2597046,225.65851 54.8858437,223.782126 C52.1252612,221.600241 50.3900907,218.488933 49.9978315,215.020438 C49.6083411,211.565787 50.5996034,208.1619 52.7879487,205.441005 C55.3104066,202.306622 59.0890173,200.50869 63.1537465,200.50869 C66.186603,200.50869 69.0450195,201.500876 71.4179574,203.376336 C74.1776169,205.558221 75.9118644,208.671375 76.3022778,212.141716 C76.6908452,215.593598 75.7014288,218.990102 73.5121605,221.709151 Z M175.667554,137.967792 C179.320642,137.967792 182.852822,137.167584 186.174566,135.584702 C192.046456,132.775202 196.457297,127.860424 198.59211,121.744871 C200.715848,115.668083 200.333741,109.12889 197.518704,103.337297 C193.491816,95.0361672 184.891647,89.6719061 175.609408,89.6719061 C171.948936,89.6719061 168.409373,90.4748839 165.088552,92.0596114 C159.218507,94.8598813 154.805821,99.7709675 152.667316,105.888366 C150.539886,111.96977 150.92107,118.509886 153.740722,124.304248 C157.780531,132.604454 166.387161,137.967792 175.667554,137.967792 Z M163.120795,109.544223 C164.278191,106.235401 166.670511,103.575421 169.856579,102.055301 C171.676662,101.187716 173.611193,100.747462 175.608485,100.747462 C180.676475,100.747462 185.365127,103.661257 187.554395,108.175469 C189.072669,111.298776 189.27849,114.81988 188.135862,118.092707 C186.979389,121.403375 184.5843,124.067046 181.401924,125.589935 C179.588301,126.454752 177.658386,126.892236 175.666631,126.892236 C170.594027,126.892236 165.896145,123.973827 163.697647,119.457769 C162.181219,116.339077 161.976321,112.818896 163.120795,109.544223 Z M115.402684,98.8313912 C117.184002,99.2338031 119.006854,99.4377779 120.820476,99.4377779 C132.220916,99.4377779 141.960945,91.7273447 144.508323,80.6767084 C145.939838,74.4107124 144.838743,67.9601238 141.410859,62.5109501 C137.954362,57.0193201 132.55226,53.201945 126.20412,51.7639686 C124.415417,51.3578648 122.585182,51.1511211 120.763253,51.1511211 C109.370197,51.1511211 99.6403209,58.8698609 97.1012496,69.9186513 C95.6577354,76.1800325 96.7514466,82.6315441 100.180254,88.0844097 C103.63952,93.5834234 109.04716,97.4007985 115.402684,98.8313912 Z M107.895302,72.4032678 C109.27144,66.4123148 114.56371,62.2276004 120.763253,62.2276004 C121.75913,62.2276004 122.764237,62.3411249 123.75273,62.5654049 C127.215687,63.3499235 130.15717,65.4256673 132.036323,68.4105298 C133.887787,71.3520129 134.482175,74.8315835 133.712424,78.1985527 C132.354745,84.0879798 126.932338,88.3622215 120.819554,88.3622215 C119.826445,88.3622215 118.82503,88.2496201 117.839306,88.027186 C114.375426,87.2472822 111.433942,85.1733843 109.555713,82.1885218 C107.707941,79.2488846 107.118167,75.7748518 107.895302,72.4032678 Z M71.3967293,112.647225 C76.4859474,108.614799 79.6858602,102.854587 80.4094632,96.4279955 C81.1302974,90.0207861 79.3000617,83.7187945 75.247331,78.6748016 C70.6029811,72.9164353 63.6742976,69.6140735 56.2398304,69.6140735 C50.7749663,69.6140735 45.4060904,71.474767 41.1170812,74.8574265 C36.0269401,78.8778535 32.8251813,84.6288361 32.0988094,91.0508128 C31.3733605,97.4663289 33.208211,103.779396 37.2683254,108.831696 C41.9089835,114.596523 48.8385899,117.903499 56.2813638,117.903499 C61.7508427,117.902576 67.1197186,116.036345 71.3967293,112.647225 Z M45.8998756,101.888245 C43.7069155,99.159966 42.7147302,95.7523865 43.1060665,92.2931211 C43.4974028,88.8292408 45.2307274,85.7225473 47.9811572,83.5489694 C50.3540952,81.6772003 53.2106658,80.687784 56.2407534,80.687784 C60.3091744,80.687784 64.0960917,82.4875619 66.6203956,85.6173295 C68.8032032,88.3363786 69.7926195,91.7356514 69.4040521,95.1884561 C69.0136387,98.6624889 67.2784682,101.780258 64.5197317,103.965835 C62.1578694,105.836681 59.3086825,106.826097 56.2822867,106.826097 C52.2092509,106.82702 48.4251025,105.025396 45.8998756,101.888245 L45.8998756,101.888245 Z"></path>
    </g>
  </g>
</svg>
