<?xml version="1.0" encoding="iso-8859-1"?>
<!-- Generator: Adobe Illustrator 17.1.0, SVG Export Plug-In . SVG Version: 6.00 Build 0)  -->
<!DOCTYPE svg PUBLIC "-//W3C//DTD SVG 1.1//EN" "http://www.w3.org/Graphics/SVG/1.1/DTD/svg11.dtd">
<svg xmlns="http://www.w3.org/2000/svg" xmlns:xlink="http://www.w3.org/1999/xlink" version="1.1" id="Capa_1" x="0px" y="0px" viewBox="0 0 283.37 283.37" style="enable-background:new 0 0 283.37 283.37;" xml:space="preserve" width="512px" height="512px">
<g>
	<path d="M255.905,0H27.465c-4.143,0-7.5,3.358-7.5,7.5v213.685c0,4.142,3.357,7.5,7.5,7.5s7.5-3.358,7.5-7.5V15h213.439v253.37   H27.465c-4.143,0-7.5,3.358-7.5,7.5s3.357,7.5,7.5,7.5h228.439c4.143,0,7.5-3.358,7.5-7.5V7.5C263.405,3.358,260.047,0,255.905,0z" fill="#ffffff"/>
	<path d="M54.602,135.836h74.456c4.143,0,7.5-3.358,7.5-7.5v-94.71c0-4.142-3.357-7.5-7.5-7.5H54.602c-4.143,0-7.5,3.358-7.5,7.5   v94.71C47.102,132.479,50.459,135.836,54.602,135.836z M62.102,41.126h59.456v79.71H62.102V41.126z" fill="#ffffff"/>
	<path d="M189.185,135.836h39.583c4.143,0,7.5-3.358,7.5-7.5v-94.71c0-4.142-3.357-7.5-7.5-7.5h-74.456c-4.143,0-7.5,3.358-7.5,7.5   v94.71c0,4.142,3.357,7.5,7.5,7.5s7.5-3.358,7.5-7.5v-87.21h59.456v79.71h-32.083c-4.143,0-7.5,3.358-7.5,7.5   S185.042,135.836,189.185,135.836z" fill="#ffffff"/>
	<path d="M47.102,248.78c0,4.142,3.357,7.5,7.5,7.5h74.456c4.143,0,7.5-3.358,7.5-7.5v-94.71c0-4.142-3.357-7.5-7.5-7.5H54.602   c-4.143,0-7.5,3.358-7.5,7.5V248.78z M62.102,161.57h59.456v79.71H62.102V161.57z" fill="#ffffff"/>
	<path d="M146.812,248.78c0,4.142,3.357,7.5,7.5,7.5h74.456c4.143,0,7.5-3.358,7.5-7.5v-94.71c0-4.142-3.357-7.5-7.5-7.5h-74.456   c-4.143,0-7.5,3.358-7.5,7.5V248.78z M161.812,161.57h59.456v79.71h-59.456V161.57z" fill="#ffffff"/>
	<path d="M105.164,49.583H78.497c-4.143,0-7.5,3.358-7.5,7.5s3.357,7.5,7.5,7.5h19.167v20.148c0,4.142,3.357,7.5,7.5,7.5   s7.5-3.358,7.5-7.5V57.083C112.664,52.941,109.306,49.583,105.164,49.583z" fill="#ffffff"/>
	<path d="M204.874,92.231c4.143,0,7.5-3.358,7.5-7.5V57.083c0-4.142-3.357-7.5-7.5-7.5h-26.667c-4.143,0-7.5,3.358-7.5,7.5   s3.357,7.5,7.5,7.5h19.167v20.148C197.374,88.874,200.731,92.231,204.874,92.231z" fill="#ffffff"/>
	<path d="M105.164,169.583H78.497c-4.143,0-7.5,3.358-7.5,7.5s3.357,7.5,7.5,7.5h19.167v20.148c0,4.142,3.357,7.5,7.5,7.5   s7.5-3.358,7.5-7.5v-27.648C112.664,172.941,109.306,169.583,105.164,169.583z" fill="#ffffff"/>
	<path d="M204.874,169.583h-26.667c-4.143,0-7.5,3.358-7.5,7.5s3.357,7.5,7.5,7.5h19.167v20.148c0,4.142,3.357,7.5,7.5,7.5   s7.5-3.358,7.5-7.5v-27.648C212.374,172.941,209.016,169.583,204.874,169.583z" fill="#ffffff"/>
</g>
<g>
</g>
<g>
</g>
<g>
</g>
<g>
</g>
<g>
</g>
<g>
</g>
<g>
</g>
<g>
</g>
<g>
</g>
<g>
</g>
<g>
</g>
<g>
</g>
<g>
</g>
<g>
</g>
<g>
</g>
</svg>
