<?xml version="1.0" encoding="iso-8859-1"?>
<!-- Generator: Adobe Illustrator 17.1.0, SVG Export Plug-In . SVG Version: 6.00 Build 0)  -->
<!DOCTYPE svg PUBLIC "-//W3C//DTD SVG 1.1//EN" "http://www.w3.org/Graphics/SVG/1.1/DTD/svg11.dtd">
<svg xmlns="http://www.w3.org/2000/svg" xmlns:xlink="http://www.w3.org/1999/xlink" version="1.1" id="Capa_1" x="0px" y="0px" viewBox="0 0 511 511" style="enable-background:new 0 0 511 511;" xml:space="preserve" width="512px" height="512px">
<g>
	<path d="M487.5,32C474.542,32,464,42.542,464,55.5v52.357c-10.779-15.304-23.156-29.335-36.98-41.906   c-3.065-2.787-7.809-2.561-10.595,0.503c-2.787,3.064-2.562,7.808,0.503,10.595c19.088,17.357,35.249,37.682,48.035,60.408   c1.672,2.973,5.139,4.442,8.438,3.578s5.599-3.845,5.599-7.255V55.5c0-4.687,3.813-8.5,8.5-8.5s8.5,3.813,8.5,8.5v112   c0,4.687-3.813,8.5-8.5,8.5H376.135c-4.687,0-8.5-3.813-8.5-8.5s3.813-8.5,8.5-8.5h68.59c0.012,0,0.024-0.002,0.036-0.002   c1.463,0.15,2.984-0.125,4.37-0.888c3.629-1.997,4.953-6.557,2.957-10.187C412.752,76.419,337.667,32,256.135,32H255.5   C132.262,32,32,132.262,32,255.5c0,4.687-3.813,8.5-8.5,8.5s-8.5-3.813-8.5-8.5C15,122.888,122.888,15,255.5,15   c50.908,0,99.398,15.52,140.23,44.881c3.363,2.417,8.05,1.652,10.468-1.711c2.418-3.363,1.652-8.049-1.711-10.468   C361.089,16.495,309.57,0,255.5,0C114.617,0,0,114.617,0,255.5C0,268.458,10.542,279,23.5,279S47,268.458,47,255.5   C47,140.533,140.533,47,255.5,47h0.635c51.708,0,100.631,19.157,138.193,52.38c0.363,0.597,0.811,1.156,1.354,1.651   c4.954,4.521,9.747,9.342,14.244,14.329c0.593,0.658,1.279,1.18,2.017,1.577c7.464,8.385,14.296,17.425,20.402,27.062h-56.209   c-12.958,0-23.5,10.542-23.5,23.5s10.542,23.5,23.5,23.5H487.5c12.958,0,23.5-10.542,23.5-23.5v-112   C511,42.542,500.458,32,487.5,32z" fill="#ffffff"/>
	<path d="M487.5,232c-12.958,0-23.5,10.542-23.5,23.5C464,370.467,370.467,464,255.5,464h-0.635   c-44.308,0-86.616-13.712-122.352-39.655c-3.354-2.435-8.042-1.688-10.476,1.663c-2.434,3.352-1.688,8.042,1.663,10.476   C162.016,464.298,207.371,479,254.865,479h0.635C378.738,479,479,378.738,479,255.5c0-4.687,3.813-8.5,8.5-8.5s8.5,3.813,8.5,8.5   C496,388.112,388.112,496,255.5,496c-42.979,0-85.043-11.338-121.644-32.789c-36.476-21.377-66.843-52.384-87.819-89.668   c-1.672-2.972-5.139-4.441-8.438-3.577C34.3,370.83,32,373.811,32,377.221V455.5c0,4.687-3.813,8.5-8.5,8.5s-8.5-3.813-8.5-8.5   v-112c0-4.687,3.813-8.5,8.5-8.5h112.635c4.687,0,8.5,3.813,8.5,8.5s-3.813,8.5-8.5,8.5h-69.86c-0.012,0-0.023,0.002-0.034,0.002   c-1.463-0.15-2.985,0.125-4.372,0.888c-3.629,1.997-4.953,6.557-2.957,10.186c10.659,19.375,24.116,37.045,39.997,52.519   c1.458,1.42,3.346,2.128,5.233,2.128c1.952,0,3.903-0.758,5.373-2.266c2.891-2.967,2.829-7.715-0.138-10.606   C97.664,393.439,87.372,380.744,78.659,367h57.476c12.958,0,23.5-10.542,23.5-23.5s-10.542-23.5-23.5-23.5H23.5   C10.542,320,0,330.542,0,343.5v112C0,468.458,10.542,479,23.5,479S47,468.458,47,455.5v-52.378   c20.978,29.744,48.011,54.71,79.271,73.03C165.171,498.95,209.857,511,255.5,511C396.383,511,511,396.383,511,255.5   C511,242.542,500.458,232,487.5,232z" fill="#ffffff"/>
</g>
<g>
</g>
<g>
</g>
<g>
</g>
<g>
</g>
<g>
</g>
<g>
</g>
<g>
</g>
<g>
</g>
<g>
</g>
<g>
</g>
<g>
</g>
<g>
</g>
<g>
</g>
<g>
</g>
<g>
</g>
</svg>
