<svg width="21px" height="24px" viewBox="0 0 21 24">
  <g fill="#4CBA64">
    <path d="M17.5379022,12.7506804 C17.508645,9.71337906 20.203555,8.25523242 20.3254598,8.18414021 C18.8089634,6.11944087 16.4488855,5.83658462 15.6069293,5.80330742 C13.5995627,5.61423239 11.6880946,6.9029678 10.6705954,6.9029678 C9.65309624,6.9029678 8.07971093,5.83053422 6.41530333,5.86078623 C4.22426676,5.89103823 2.20714779,7.04515222 1.07912154,8.86934812 C-1.19481032,12.5404289 0.49885444,17.981252 2.71264658,20.9610745 C3.79678708,22.4177085 5.08735313,24.0588798 6.78426869,23.9983758 C8.41941912,23.9378718 9.03707038,23.0151856 11.0103036,23.0151856 C12.9835368,23.0151856 13.539423,23.9983758 15.2672211,23.9696364 C17.0242764,23.9378718 18.1392994,22.4812378 19.2153129,21.0200659 C20.4571171,19.3289788 20.9707428,17.6923454 21,17.6061272 C20.9609904,17.5910012 17.5736609,16.3824336 17.5379022,12.7506804 Z M14.2913909,3.83287288 C15.1918442,2.81792284 15.7997334,1.40665461 15.6323022,0 C14.3351445,0.0484553128 12.7651113,0.804715037 11.8337357,1.81966508 C10.9999337,2.71667161 10.2685149,4.15359184 10.4667204,5.53160788 C11.9133693,5.63597804 13.3907895,4.84633101 14.2913909,3.83287288 Z"/>
  </g>
</svg>
