<svg width="124px" height="50px" viewBox="0 0 188 50">
  <g fill="#fff">
    <path d="M43,50 L4,50 L3,50 L2,50 L2,49 L1,49 L1,48 L0,48 L0,47 L0,46 L0,4 L0,3 L0,2 L1,2 L1,1 L2,1 L2,0 L3,0 L4,0 L43,0 L44,0 L45,0 L45,1 L46,1 L46,2 L47,2 L47,3 L47,4 L47,15 L47,16 L46,16 L46,17 L45,17 L39,17 L38,17 L38,16 L37,16 L37,15 L37,12 L37,11 L37,10 L36,10 L36,9 L35,9 L34,9 L13,9 L12,9 L11,9 L11,10 L10,10 L10,11 L10,12 L10,20 L18,29 L18,38 L18,39 L19,39 L19,40 L20,40 L20,41 L21,41 L34,41 L35,41 L36,41 L36,40 L37,40 L37,39 L37,38 L37,36 L37,35 L38,35 L38,34 L39,34 L45,34 L46,34 L47,35 L47,36 L47,46 L47,47 L47,48 L46,48 L46,49 L45,49 L45,50 L44,50 L43,50 Z M101,50 L102,50 L103,49 L103,48 L103,2 L103,1 L102,0 L101,0 L95,0 L94,0 L94,1 L93,1 L93,2 L93,19 L93,20 L92,21 L91,21 L91,22 L90,22 L69,22 L68,22 L68,21 L67,21 L66,20 L66,19 L66,2 L66,1 L65,1 L65,0 L64,0 L58,0 L57,0 L56,1 L56,2 L56,46 L56,47 L56,48 L57,48 L57,49 L58,49 L58,50 L59,50 L60,50 L71,50 L72,50 L73,49 L74,49 L74,48 L74,47 L74,46 L74,34 L74,33 L75,33 L75,32 L75,31 L76,31 L77,31 L78,31 L90,31 L91,31 L92,31 L92,32 L93,32 L93,33 L93,34 L93,33 L93,48 L93,49 L94,49 L94,50 L95,50 L101,50 Z M128,50 L129,50 L130,50 L130,49 L131,49 L131,48 L132,48 L132,47 L132,46 L132,29 L124,20 L124,2 L124,1 L123,1 L123,0 L122,0 L116,0 L115,0 L114,1 L114,2 L114,46 L114,47 L114,48 L115,48 L115,49 L116,49 L116,50 L117,50 L118,50 L128,50 Z M176,22 L177,22 L178,21 L178,20 L178,11 L178,10 L177,9 L176,9 L153,9 L152,9 L151,10 L151,11 L151,20 L151,21 L152,22 L153,22 L176,22 Z M156,50 L145,50 L144,50 L144,50 L144,50 L144,50 L143,50 L143,50 L143,49 L143,49 L142,49 L142,49 L142,49 L142,49 L142,48 L142,48 L141,48 L141,48 L141,47 L141,47 L141,47 L141,47 L141,46 L141,4 L141,3 L141,3 L141,3 L141,3 L141,2 L141,2 L142,2 L142,2 L142,1 L142,1 L142,1 L142,1 L143,1 L143,1 L143,0 L143,0 L144,0 L144,0 L144,0 L144,0 L145,0 L184,0 L185,0 L185,0 L185,0 L185,0 L186,0 L186,0 L186,1 L186,1 L187,1 L187,1 L187,1 L187,1 L187,2 L187,2 L188,2 L188,2 L188,3 L188,3 L188,3 L188,3 L188,4 L188,27 L188,27 L188,27 L188,28 L188,28 L188,28 L188,28 L187,29 L187,29 L187,29 L187,29 L187,29 L187,30 L186,30 L186,30 L186,30 L186,30 L185,30 L185,30 L185,30 L185,30 L184,30 L163,30 L163,30 L162,30 L162,30 L162,31 L162,31 L161,31 L161,31 L161,31 L161,31 L161,31 L160,31 L160,32 L160,32 L160,32 L160,32 L160,33 L160,33 L160,33 L160,33 L160,34 L160,46 L160,47 L160,47 L160,47 L160,47 L159,48 L159,48 L159,48 L159,48 L159,49 L159,49 L158,49 L158,49 L158,49 L158,49 L158,50 L157,50 L157,50 L157,50 L156,50 L156,50 L156,50 L156,50 Z"/>
  </g>
</svg>
