<svg width="20px" height="24px" viewBox="0 0 20 24">
  <g fill="#009688">
    <path transform="translate(12.365827, 12.816163) scale(1, -1) translate(-12.365827, -12.816163) " d="M11.9336779,12.9330556 C11.5224322,12.9275366 12.0114873,12.7286314 12.5483724,12.6489369 C12.6968968,12.7608624 12.8312325,12.8734503 12.9511506,12.983389 C12.6167989,12.9045775 12.2764971,12.9028114 11.9336779,12.9330556"/>
    <path d="M14.1409483,11.1164175 C14.386048,11.4424808 14.5643231,11.7994505 14.6270284,12.168562 C14.5721041,11.9054155 14.424495,11.678253 14.2846669,11.4385071 C13.5161844,10.9715986 14.2123499,11.7157823 14.2842092,11.9985764 C13.4580561,10.9947785 14.170699,11.3967833 14.1409483,11.1164175" transform="translate(14.255321, 11.642490) scale(1, -1) translate(-14.255321, -11.642490) "/>
    <path transform="translate(14.853955, 9.931082) scale(1, -1) translate(-14.853955, -9.931082) " d="M14.9556588,9.73872722 C15.0055484,10.4531082 14.8098805,10.2272702 14.7442002,9.95463099 C14.8208654,9.91621866 14.881511,9.4510763 14.9556588,9.73872722"/>
    <path transform="translate(10.673583, 0.418033) scale(1, -1) translate(-10.673583, -0.418033) " d="M10.3740565,0.47686545 C10.5935249,0.438894645 10.8486941,0.40975426 10.8125356,0.359200106 C11.0526005,0.40997502 11.107296,0.456776245 10.3740565,0.47686545"/>
    <path transform="translate(10.735069, 0.492319) scale(1, -1) translate(-10.735069, -0.492319) " d="M10.8125356,0.57686545 L10.6576032,0.47686545 L10.8020084,0.51686545 L10.8125356,0.57686545"/>
    <path d="M17.6563325,13.8169806 C17.6808196,13.1754506 17.4620378,12.8641783 17.2643103,12.3131602 L16.9089043,12.14185 C16.6182632,11.5970131 16.9372819,11.7956976 16.7287984,11.3623447 C16.2747575,10.9729232 15.3511138,10.1439675 15.0556668,10.0680259 C14.8394024,10.0726619 15.2016739,10.3137323 15.2490461,10.4082178 C14.6412172,10.0055507 14.7611352,9.80377561 13.8315414,9.55917298 L13.8045369,9.61745375 C11.5116762,8.57700953 8.326982,10.6389126 8.36886178,13.4522843 C8.3443747,13.2736891 8.299291,13.3182827 8.24848602,13.246094 C8.13016992,14.6936206 8.94144764,16.1475492 10.3097493,16.7411742 C11.6483004,17.3802758 13.2170758,17.1180123 14.1759625,16.2561634 C13.6493758,16.9215355 12.601237,17.6268653 11.3590324,17.5608579 C10.1422302,17.542314 9.00392403,16.7963643 8.62403094,15.9866148 C8.0006401,15.6080105 7.9283231,14.5271672 7.65667666,14.3293658 C7.29097234,11.7382998 8.343917,10.6190441 10.1252952,9.30220776 C10.4054092,9.11985959 10.20402,9.09226453 10.2420094,8.95340618 C9.6502,9.22074714 9.10828021,9.62429732 8.6627068,10.1183593 C8.89911016,9.7847902 9.15427931,9.46005151 9.48405398,9.2052939 C8.92611461,9.38764207 8.18074605,10.5095469 7.9631085,10.5552443 C8.92497035,8.89380084 11.8652514,7.64186808 13.4054203,8.26308811 C12.6927775,8.23770065 11.7876708,8.24895944 10.9871491,8.53440276 C10.6507377,8.70107693 10.1934929,9.04700863 10.2754216,9.11169145 C12.3765051,8.35448296 14.5473881,8.53815569 16.3653826,9.94417928 C16.8281198,10.2916563 17.3334234,10.8828529 17.4794305,10.891021 C17.2595044,10.5720221 17.5169621,10.7375925 17.3480699,10.4561229 C17.8087475,11.173153 17.147825,10.7479682 17.8243094,11.6943685 L18.0742149,11.3623447 C17.9813013,11.9577358 18.8406378,12.6805056 18.7532166,13.6218284 C18.9504864,13.9097001 18.9731427,13.3121014 18.7639726,12.6498199 C19.054156,13.3845108 18.8406378,13.5026177 18.9150145,14.108826 C18.9955701,13.9050641 19.1015282,13.688498 19.155766,13.4734773 C18.966506,14.1834431 19.3493742,14.6691162 19.4443474,15.0817175 C19.3507473,15.1216752 19.1525621,14.7677961 19.1074784,15.6064652 C19.1138862,15.97072 19.2125211,15.797423 19.2502816,15.8870518 C19.1761338,15.9281133 18.9816102,16.2073753 18.8632941,16.7429402 C18.9488845,16.8687737 19.092603,16.4166562 19.2090883,16.3981124 C19.134254,16.8239593 19.004953,17.148698 18.9994606,17.4754236 C18.6584722,18.1628718 18.878856,17.383808 18.6021748,17.7705804 C18.2394455,18.8626825 18.9033431,18.0240134 18.9481979,18.520283 C19.4985852,17.7513742 19.8121114,16.559709 19.9562877,16.0660886 C19.8462103,16.6678817 19.6688505,17.2509101 19.4516707,17.8149532 C19.6191898,17.7471797 19.1827704,19.0531988 19.6693082,18.1882592 C19.149587,20.0320509 17.4460182,21.7548658 15.8783871,22.5632907 C16.0699356,22.3939674 16.3122891,22.181375 16.2253256,22.1480402 C15.4458582,22.5957425 15.5827112,22.6306226 15.4710318,22.8198144 C14.8361984,23.069053 14.7945475,22.7997252 14.3739189,22.8193729 C13.1770268,23.4317625 12.9463447,23.3666381 11.8448836,23.7503199 L11.895002,23.5244819 C11.1020324,23.7792395 10.9709006,23.4277888 10.1140815,23.5235989 C10.0619034,23.5628942 10.3884742,23.6657686 10.6576032,23.7035187 C9.89095152,23.6059425 9.92688117,23.8492206 9.17670674,23.6765859 C9.36161856,23.8017571 9.55705753,23.8845423 9.75432732,23.9909488 C9.12910567,23.9543026 8.26175939,23.6399396 8.52951537,23.9258245 C7.50975415,23.4869526 5.69862526,22.8708101 4.68229681,21.9515634 L4.65025763,22.1575329 C4.18454532,21.618215 2.61943154,20.5468643 2.4947076,19.8483781 L2.37021252,19.8203415 C2.12785903,19.424518 1.97109592,18.9759327 1.77886086,18.5686295 C1.46190186,18.0476348 1.3142928,18.368179 1.35937649,18.2864976 C0.735985657,17.0672374 0.4263499,16.042688 0.158822776,15.2024735 C0.349455876,14.9276267 0.163399801,13.5478736 0.235487948,12.4436296 C-0.0775805777,6.98974157 4.20331112,1.69458034 8.88263287,0.47222948 C9.5685001,0.235574229 10.5882613,0.244625409 11.4558365,0.220341755 C10.4321848,0.502915188 10.2999087,0.37001737 9.30303263,0.705573323 C8.58375312,1.03229886 8.4260746,1.40538409 7.91665169,1.83167261 L8.11826965,1.48816928 C7.11910504,1.82902348 7.5372163,1.91026334 6.72433662,2.1586189 L6.93968565,2.42971279 C6.61586112,2.45355492 6.08195113,2.95622657 5.93594402,3.23482631 L5.58168227,3.22135992 C5.15601892,3.72800526 4.92922732,4.09314312 4.94570461,4.37615807 L4.83127898,4.17946047 C4.70152032,4.39426043 3.2652498,6.07954605 4.01038951,5.68725465 C3.87193449,5.80933521 3.68793808,5.8859391 3.48837978,6.23584448 L3.64010817,6.40296018 C3.28149824,6.84801334 2.98010113,7.41845846 3.00298625,7.60853324 C3.19430591,7.35929464 3.32703964,7.31271418 3.45840026,7.2701074 C2.55283582,9.43753394 2.50203084,7.38953883 1.81616361,9.47638779 L1.96125531,9.48764658 C1.8500336,9.64924326 1.78252248,9.82474785 1.69304163,9.99694104 L1.75620458,10.6040324 C1.10466504,11.3301137 1.57426783,13.6949001 1.6683257,14.991868 C1.73354831,15.5192648 2.212534,16.0806588 2.5768652,16.9610516 L2.35487948,16.9979186 C2.77916972,17.7118581 4.77749894,19.8651559 5.70297344,19.7543342 C6.15129306,20.2976257 5.6139503,19.756321 5.52630026,19.8931925 C6.51104724,20.876239 6.820683,20.587705 7.48526706,20.7645342 C8.20202921,21.1749279 6.87011487,20.6044828 7.20995899,20.9210534 C8.44895972,21.2263651 8.08806129,21.6151244 9.70443775,21.7700982 C9.87493194,21.6764958 9.30875391,21.6255001 9.16663728,21.5040818 C10.1989853,21.9913003 12.433489,21.8804785 13.8846349,21.2336502 C15.5689802,20.4744549 17.4608936,18.2302037 17.5354991,16.1186296 L17.6206317,16.0965535 C17.5778365,15.2572221 17.7538232,14.2865382 17.4485356,13.3948866 L17.6563325,13.8169806" transform="translate(10.057555, 12.105645) scale(1, -1) translate(-10.057555, -12.105645) "/>
    <path d="M7.44498924,14.5364391 L7.38731872,14.2582809 C7.65759206,13.9044018 7.87202569,13.5207201 8.2171334,13.2438864 C7.96882978,13.7112364 7.78437566,13.9044018 7.44498924,14.5364391" transform="translate(7.802226, 13.890163) scale(1, -1) translate(-7.802226, -13.890163) "/>
    <path transform="translate(7.985994, 13.140129) scale(1, -1) translate(-7.985994, -13.140129) " d="M8.08394196,13.0604344 C7.94090992,13.2132007 7.85623496,13.3968734 7.76149054,13.5796631 C7.85211563,13.2580151 8.03771401,12.9816229 8.21049671,12.7005948 L8.08394196,13.0604344"/>
    <path d="M19.3901097,13.2015004 L19.3299218,13.0553569 C19.2191578,12.2963824 18.9800082,11.5453552 18.6133885,10.8490765 C19.0182264,11.5837675 19.2800322,12.3873357 19.3901097,13.2015004" transform="translate(19.001749, 12.025288) scale(1, -1) translate(-19.001749, -12.025288) "/>
    <path transform="translate(10.861510, 0.109630) scale(1, -1) translate(-10.861510, -0.109630) " d="M10.4557564,0.0503561736 C10.7338107,0.148594594 11.1391063,0.104221734 11.4340956,0.168904559 C11.0496255,0.13777733 10.667215,0.119233448 10.2889239,0.0722114626 L10.4557564,0.0503561736"/>
    <path transform="translate(0.728738, 5.478085) scale(1, -1) translate(-0.728738, -5.478085) " d="M0.693877025,5.77997552 C0.757955378,5.20776432 0.247617065,4.98567926 0.806929548,5.36295894 C1.1067247,6.01442317 0.689757702,5.54287875 0.693877025,5.77997552"/>
    <path transform="translate(0.127915, 7.408745) scale(1, -1) translate(-0.127915, -7.408745) " d="M0.0366162018,6.99305298 C0.165459462,7.37452712 0.188802291,7.60367651 0.238005312,7.82443701 C-0.118087251,7.38534438 0.0741478087,7.29174193 0.0366162018,6.99305298"/>
  </g>
</svg>
