<svg width="882px" height="883px" viewBox="0 0 882 883">
    <!-- Generator: Sketch 3.3.2 (12043) - http://www.bohemiancoding.com/sketch -->
    <title>Artboard 11</title>
    <desc>Created with Sketch.</desc>
    <defs>
        <path d="M472.416424,2.13162821e-14 C355.760591,128.476354 187.856117,209.677557 0.935694365,211.41007 L0.935694365,211.41007 C34.6837453,173.117352 55.1488851,122.892998 55.1488851,67.9009355 C55.1488851,44.189469 51.3440878,21.364396 44.3102439,-2.04956052e-11 L472.416424,0 Z" id="path-1"></path>
        <linearGradient x1="50%" y1="0%" x2="50%" y2="100%" id="linearGradient-3">
            <stop stop-color="#4CBA64" offset="0%"></stop>
            <stop stop-color="#42A357" offset="100%"></stop>
        </linearGradient>
        <filter x="-50%" y="-50%" width="200%" height="200%" filterUnits="objectBoundingBox" id="filter-4">
            <feOffset dx="5" dy="5" in="SourceAlpha" result="shadowOffsetOuter1"></feOffset>
            <feGaussianBlur stdDeviation="10" in="shadowOffsetOuter1" result="shadowBlurOuter1"></feGaussianBlur>
            <feColorMatrix values="0 0 0 0 0   0 0 0 0 0   0 0 0 0 0  0 0 0 0.175 0" in="shadowBlurOuter1" type="matrix" result="shadowMatrixOuter1"></feColorMatrix>
            <feMerge>
                <feMergeNode in="shadowMatrixOuter1"></feMergeNode>
                <feMergeNode in="SourceGraphic"></feMergeNode>
            </feMerge>
        </filter>
        <circle id="path-5" cx="441" cy="441" r="441"></circle>
        <path d="M0.933865538,267.800411 L0.933865538,267.800411 C34.6159555,229.413013 55.0410959,179.064478 55.0410959,123.936446 C55.0410959,89.4661526 36.5793616,46.0715813 22.3604452,17.0942439 C22.02297,16.4064887 41.6252963,11.7464778 41.2808219,11.0628293 C39.4979729,7.52456336 37.5982616,4.07816844 35.5872679,0.723261328 L156.671259,0.723261328 C161.399747,18.5949304 163.919269,37.3673075 163.919269,56.7292545 C163.919269,158.229999 94.6790356,243.528479 0.93895912,267.800363 Z" id="path-7"></path>
        <filter x="-50%" y="-50%" width="200%" height="200%" filterUnits="objectBoundingBox" id="filter-9">
            <feOffset dx="0" dy="0" in="SourceAlpha" result="shadowOffsetOuter1"></feOffset>
            <feGaussianBlur stdDeviation="5" in="shadowOffsetOuter1" result="shadowBlurOuter1"></feGaussianBlur>
            <feColorMatrix values="0 0 0 0 0   0 0 0 0 0   0 0 0 0 0  0 0 0 0.14 0" in="shadowBlurOuter1" type="matrix" result="shadowMatrixOuter1"></feColorMatrix>
            <feMerge>
                <feMergeNode in="shadowMatrixOuter1"></feMergeNode>
                <feMergeNode in="SourceGraphic"></feMergeNode>
            </feMerge>
        </filter>
    </defs>
    <g id="Assets" stroke="none" stroke-width="1" fill="none" fill-rule="evenodd" sketch:type="MSPage">
        <g id="Artboard-11" sketch:type="MSArtboardGroup">
            <g id="Logo" sketch:type="MSLayerGroup">
                <g id="Big-arrow" transform="translate(22.150685, 670.561644)">
                    <mask id="mask-2" sketch:name="Mask" fill="white">
                        <use xlink:href="#path-1"></use>
                    </mask>
                    <use id="Mask" fill="#FFFFFF" sketch:type="MSShapeGroup" xlink:href="#path-1"></use>
                    <rect id="Rectangle-21-Copy-3" fill="url(#linearGradient-3)" sketch:type="MSShapeGroup" mask="url(#mask-2)" x="-22.4042346" y="-668.695289" width="882.382162" height="880.133645"></rect>
                </g>
                <g id="Circle">
                    <mask id="mask-6" sketch:name="Mask" fill="white">
                        <use xlink:href="#path-5"></use>
                    </mask>
                    <use id="Mask" fill="#FFFFFF" filter="url(#filter-4)" sketch:type="MSShapeGroup" xlink:href="#path-5"></use>
                    <rect id="Rectangle-21-Copy-2" fill="url(#linearGradient-3)" sketch:type="MSShapeGroup" mask="url(#mask-6)" x="0" y="0" width="882" height="882"></rect>
                </g>
                <path d="M249.69863,838.712798 C179.333292,865.991512 102.981132,881.259146 23.1575342,882 L23.1575342,882 C56.8712402,843.694955 77.3155528,793.454432 77.3155528,738.444666 C77.3155528,717.695173 74.4067929,697.624235 68.9743257,678.616438 C112.979008,747.363515 175.582628,803.088293 249.69863,838.712798 Z" id="Arrow-shade-overlay" fill="#42A357" sketch:type="MSShapeGroup"></path>
                <g id="Small-arrow" transform="translate(21.143836, 614.171233)">
                    <mask id="mask-8" sketch:name="Mask" fill="white">
                        <use xlink:href="#path-7"></use>
                    </mask>
                    <use id="Mask" fill="#FFFFFF" sketch:type="MSShapeGroup" xlink:href="#path-7"></use>
                    <rect id="Rectangle-21-Copy" fill="url(#linearGradient-3)" sketch:type="MSShapeGroup" mask="url(#mask-8)" x="-22.3604452" y="-614.481033" width="880.657534" height="882.3098"></rect>
                </g>
                <path d="M216.946414,523.561644 C255.020685,523.561644 285.885979,492.683091 285.885979,454.592466 C285.885979,416.50184 255.020685,385.623288 216.946414,385.623288 C178.872144,385.623288 148.006849,416.50184 148.006849,454.592466 C148.006849,492.683091 178.872144,523.561644 216.946414,523.561644 Z M441,523.561644 C479.07427,523.561644 509.939565,492.683091 509.939565,454.592466 C509.939565,416.50184 479.07427,385.623288 441,385.623288 C402.92573,385.623288 372.060435,416.50184 372.060435,454.592466 C372.060435,492.683091 402.92573,523.561644 441,523.561644 Z M665.053586,523.561644 C703.127856,523.561644 733.993151,492.683091 733.993151,454.592466 C733.993151,416.50184 703.127856,385.623288 665.053586,385.623288 C626.979315,385.623288 596.114021,416.50184 596.114021,454.592466 C596.114021,492.683091 626.979315,523.561644 665.053586,523.561644 Z" id="Oval-20" fill="#DBFFDD" filter="url(#filter-9)" sketch:type="MSShapeGroup"></path>
            </g>
        </g>
    </g>
</svg>
