<svg width="80px" height="80px" viewBox="0 0 149 150">
  <g fill="#009688">
    <path d="M127.291112,21.7982949 C113.284475,7.74900651 94.6571775,0.00789661242 74.8110245,0 C33.919258,0 0.638419303,33.3415224 0.622054758,74.323726 C0.616801941,87.4238011 4.03295131,100.211454 10.5250291,111.482957 L0,150 L39.3286494,139.664144 C50.1646049,145.585389 62.3646765,148.705968 74.7815279,148.711232 L74.8118326,148.711232 C74.814257,148.711232 74.8096103,148.711232 74.8120347,148.711232 C115.699559,148.711232 148.983428,115.365255 148.999994,74.3830518 C149.007671,54.5224642 141.298152,35.8475832 127.291112,21.7982949 L127.291112,21.7982949 Z M74.5008073,136.092715 L74.4755847,136.092715 C63.4248331,136.088276 52.5857501,133.120688 43.1302811,127.511186 L40.8814292,126.176811 L17.5722654,132.289352 L23.7939882,109.570466 L22.32946,107.241312 C16.1646394,97.4388086 12.9086973,86.1090275 12.9133383,74.4763735 C12.9268576,40.5308164 40.5545436,12.9139073 74.5252228,12.9139073 C90.9746315,12.9201625 106.437733,19.3327512 118.065378,30.9696425 C129.693022,42.6065339 136.092917,58.0752395 136.086662,74.5258098 C136.072739,108.47399 108.445457,136.092715 74.5008073,136.092715 L74.5008073,136.092715 Z M108.415711,89.9464936 C106.558168,89.0109206 97.4263272,84.4887466 95.7236468,83.8649633 C94.0211689,83.2411801 92.7830767,82.9293903 91.5447821,84.8007401 C90.30669,86.6718861 86.7470738,90.8822703 85.6634395,92.1296331 C84.5800076,93.3771996 83.4965758,93.5332983 81.6392351,92.5975215 C79.781692,91.6619485 73.7969051,89.6880953 66.7023698,83.3200445 C61.1809565,78.3640142 57.4529144,72.2423385 56.3694826,70.3709887 C55.2860507,68.4996389 56.2542971,67.4880544 57.1840808,66.5561495 C58.0195298,65.7188004 59.0414215,64.3730099 59.970193,63.2815421 C60.8987622,62.1900742 61.2084876,61.4101923 61.8275337,60.1628295 C62.4467822,58.915263 62.1370568,57.8237951 61.672671,56.8880183 C61.2084876,55.9524453 57.4938063,46.7519988 55.9459886,43.0097068 C54.4384556,39.3648235 52.9070351,39.8579812 51.7669215,39.8007178 C50.6847043,39.7465112 49.445195,39.7350993 48.2071029,39.7350993 C46.9690107,39.7350993 44.9566049,40.2027839 43.2541269,42.0741337 C41.551649,43.9454835 36.7533333,48.4676575 36.7533333,57.6679002 C36.7533333,66.868143 43.4087872,75.7563922 44.3375588,77.0039588 C45.2661279,78.2515253 57.4348977,97.1319225 76.0674155,105.22847 C80.498919,107.15423 83.9589372,108.304184 86.6561805,109.165988 C91.1059032,110.588197 95.1550071,110.387674 98.3555036,109.906539 C101.924027,109.369975 109.344685,105.384569 110.892705,101.01829 C112.440523,96.6520108 112.440523,92.909515 111.976137,92.1298369 C111.511346,91.3501587 110.273052,90.8822703 108.415711,89.9464936 L108.415711,89.9464936 Z"/>
  </g>
</svg>
