<svg width="86px" height="50px" viewBox="0 0 131 50">
  <g fill="#fff" fill-rule="evenodd">
    <path d="M50,25 C50,11.1928813 38.8071187,0 25,0 C11.1928813,0 0,11.1928813 0,25 C0,38.8071187 11.1928813,50 25,50 C38.8071187,50 50,38.8071187 50,25 Z M18.3333333,15 L18.3333333,35 L22.1794872,35 L22.1794872,28.75 L28,28.75 C31.866,28.65 35,25.59435 35,21.875 C35,18.05565 31.866,15 28,15 L18.3333333,15 Z M28.1602361,24.9998148 L28.1602361,25 L22.1666463,25 L22.1666463,18.3335185 L28.1602361,18.3335185 L28.1602361,18.3333333 C29.9126559,18.3333333 31.333313,19.8256993 31.333313,21.6665741 C31.333313,23.5074489 29.9126559,24.9998148 28.1602361,24.9998148 Z"/>
    <path d="M67.1395,22 L65.521,22 L65.521,8.9935 L70.747,8.9935 C72.0080063,8.9935 73.0024964,9.37049623 73.7305,10.1245 C74.4585036,10.8785038 74.8225,11.8079945 74.8225,12.913 C74.8225,14.0180055 74.4552537,14.9474962 73.72075,15.7015 C72.9862463,16.4555038 71.9950062,16.8325 70.747,16.8325 L67.1395,16.8325 L67.1395,22 Z M70.552,15.3895 C71.3190038,15.3895 71.9429976,15.1587523 72.424,14.69725 C72.9050024,14.2357477 73.1455,13.6410036 73.1455,12.913 C73.1455,12.1849964 72.9050024,11.5902523 72.424,11.12875 C71.9429976,10.6672477 71.3190038,10.4365 70.552,10.4365 L67.1395,10.4365 L67.1395,15.3895 L70.552,15.3895 Z M78.3715,22 L76.909,22 L76.909,12.5815 L78.3715,12.5815 L78.3715,14.1025 C79.2425044,12.9584943 80.2889939,12.3865 81.511,12.3865 L81.511,13.888 C81.3289991,13.8489998 81.134001,13.8295 80.926,13.8295 C80.4839978,13.8295 80.0030026,13.9854984 79.483,14.2975 C78.9629974,14.6095016 78.5925011,14.9539981 78.3715,15.331 L78.3715,22 Z M87.4585,22.234 C86.054493,22.234 84.9267543,21.7595047 84.07525,20.8105 C83.2237457,19.8614953 82.798,18.685007 82.798,17.281 C82.798,15.876993 83.2237457,14.7037547 84.07525,13.76125 C84.9267543,12.8187453 86.054493,12.3475 87.4585,12.3475 C88.862507,12.3475 89.9902457,12.8187453 90.84175,13.76125 C91.6932543,14.7037547 92.119,15.876993 92.119,17.281 C92.119,18.685007 91.6932543,19.8614953 90.84175,20.8105 C89.9902457,21.7595047 88.862507,22.234 87.4585,22.234 L87.4585,22.234 Z M87.4585,20.9275 C88.4205048,20.9275 89.1809972,20.5732535 89.74,19.86475 C90.2990028,19.1562465 90.5785,18.2950051 90.5785,17.281 C90.5785,16.2669949 90.2990028,15.4090035 89.74,14.707 C89.1809972,14.0049965 88.4205048,13.654 87.4585,13.654 C86.4964952,13.654 85.7327528,14.0082465 85.16725,14.71675 C84.6017472,15.4252535 84.319,16.279995 84.319,17.281 C84.319,18.2950051 84.6017472,19.1562465 85.16725,19.86475 C85.7327528,20.5732535 86.4964952,20.9275 87.4585,20.9275 L87.4585,20.9275 Z M102.7855,22 L101.323,22 L101.323,20.596 C100.516996,21.6880055 99.4575066,22.234 98.1445,22.234 C96.8964938,22.234 95.8857539,21.7887545 95.11225,20.89825 C94.3387461,20.0077455 93.952,18.8085075 93.952,17.3005 C93.952,15.8054925 94.3387461,14.6062545 95.11225,13.70275 C95.8857539,12.7992455 96.8964938,12.3475 98.1445,12.3475 C99.4445065,12.3475 100.503996,12.8999945 101.323,14.005 L101.323,8.9935 L102.7855,8.9935 L102.7855,22 Z M98.4955,20.9275 C99.0675029,20.9275 99.6134974,20.7845014 100.1335,20.4985 C100.653503,20.2124986 101.049999,19.8615021 101.323,19.4455 L101.323,15.175 C101.049999,14.7459979 100.650253,14.3852515 100.12375,14.09275 C99.5972474,13.8002485 99.0545028,13.654 98.4955,13.654 C97.5724954,13.654 96.8380027,13.9952466 96.292,14.67775 C95.7459973,15.3602534 95.473,16.2344947 95.473,17.3005 C95.473,18.3665053 95.7459973,19.2374966 96.292,19.9135 C96.8380027,20.5895034 97.5724954,20.9275 98.4955,20.9275 L98.4955,20.9275 Z M113.53,22 L112.0675,22 L112.0675,20.674 C111.677498,21.1160022 111.186753,21.4864985 110.59525,21.7855 C110.003747,22.0845015 109.376503,22.234 108.7135,22.234 C106.71149,22.234 105.7105,21.23301 105.7105,19.231 L105.7105,12.5815 L107.173,12.5815 L107.173,18.7825 C107.173,19.5625039 107.351748,20.1149984 107.70925,20.44 C108.066752,20.7650016 108.589997,20.9275 109.279,20.9275 C109.825003,20.9275 110.354747,20.7910014 110.86825,20.518 C111.381753,20.2449986 111.781499,19.907002 112.0675,19.504 L112.0675,12.5815 L113.53,12.5815 L113.53,22 Z M120.6085,22.234 C119.217493,22.234 118.086504,21.7627547 117.2155,20.82025 C116.344496,19.8777453 115.909,18.6980071 115.909,17.281 C115.909,15.8639929 116.344496,14.6875047 117.2155,13.7515 C118.086504,12.8154953 119.217493,12.3475 120.6085,12.3475 C122.064507,12.3475 123.214996,12.8934945 124.06,13.9855 L123.085,14.8825 C122.486997,14.0634959 121.687505,13.654 120.6865,13.654 C119.698495,13.654 118.908753,13.9919966 118.31725,14.668 C117.725747,15.3440034 117.43,16.2149947 117.43,17.281 C117.43,18.3470053 117.725747,19.2212466 118.31725,19.90375 C118.908753,20.5862534 119.698495,20.9275 120.6865,20.9275 C121.674505,20.9275 122.473997,20.5180041 123.085,19.699 L124.06,20.596 C123.214996,21.6880055 122.064507,22.234 120.6085,22.234 L120.6085,22.234 Z M128.4865,22.234 C127.797497,22.234 127.277502,22.0455019 126.9265,21.6685 C126.575498,21.2914981 126.4,20.7455036 126.4,20.0305 L126.4,13.8685 L124.84,13.8685 L124.84,12.5815 L126.4,12.5815 L126.4,10.0075 L127.8625,10.0075 L127.8625,12.5815 L129.7735,12.5815 L129.7735,13.8685 L127.8625,13.8685 L127.8625,19.7185 C127.8625,20.0825018 127.943749,20.3749989 128.10625,20.596 C128.268751,20.8170011 128.505998,20.9275 128.818,20.9275 C129.247002,20.9275 129.578499,20.7975013 129.8125,20.5375 L130.2415,21.6295 C129.812498,22.032502 129.227504,22.234 128.4865,22.234 L128.4865,22.234 Z M76.363,42 L74.7445,42 L74.7445,36.033 L67.1395,36.033 L67.1395,42 L65.521,42 L65.521,28.9935 L67.1395,28.9935 L67.1395,34.59 L74.7445,34.59 L74.7445,28.9935 L76.363,28.9935 L76.363,42 Z M87.166,42 L85.7035,42 L85.7035,40.674 C85.313498,41.1160022 84.822753,41.4864985 84.23125,41.7855 C83.639747,42.0845015 83.0125033,42.234 82.3495,42.234 C80.34749,42.234 79.3465,41.23301 79.3465,39.231 L79.3465,32.5815 L80.809,32.5815 L80.809,38.7825 C80.809,39.5625039 80.9877482,40.1149984 81.34525,40.44 C81.7027518,40.7650016 82.2259966,40.9275 82.915,40.9275 C83.4610027,40.9275 83.9907474,40.7910014 84.50425,40.518 C85.0177526,40.2449986 85.4174986,39.907002 85.7035,39.504 L85.7035,32.5815 L87.166,32.5815 L87.166,42 Z M97.9105,42 L96.448,42 L96.448,35.838 C96.448,35.044996 96.2660018,34.4827517 95.902,34.15125 C95.5379982,33.8197483 95.0180034,33.654 94.342,33.654 C93.7959973,33.654 93.2662526,33.7969986 92.75275,34.083 C92.2392474,34.3690014 91.8395014,34.713498 91.5535,35.1165 L91.5535,42 L90.091,42 L90.091,32.5815 L91.5535,32.5815 L91.5535,33.9465 C91.9175018,33.5174979 92.4049969,33.1437516 93.016,32.82525 C93.6270031,32.5067484 94.2574967,32.3475 94.9075,32.3475 C96.90951,32.3475 97.9105,33.3614899 97.9105,35.3895 L97.9105,42 Z M103.2145,42.234 C102.525497,42.234 102.005502,42.0455019 101.6545,41.6685 C101.303498,41.2914981 101.128,40.7455036 101.128,40.0305 L101.128,33.8685 L99.568,33.8685 L99.568,32.5815 L101.128,32.5815 L101.128,30.0075 L102.5905,30.0075 L102.5905,32.5815 L104.5015,32.5815 L104.5015,33.8685 L102.5905,33.8685 L102.5905,39.7185 C102.5905,40.0825018 102.671749,40.3749989 102.83425,40.596 C102.996751,40.8170011 103.233998,40.9275 103.546,40.9275 C103.975002,40.9275 104.306499,40.7975013 104.5405,40.5375 L104.9695,41.6295 C104.540498,42.032502 103.955504,42.234 103.2145,42.234 L103.2145,42.234 Z"/>
  </g>
</svg>
