<svg width="24px" height="16px" viewBox="0 0 24 16">
  <g fill="#4CBA64" fill-rule="evenodd" transform="translate(0.000000, -4.000000)">
    <path d="M22.165752,11.9854676 C22.4829688,12.0499911 22.8001992,12.1144329 23.1174514,12.1787393 C23.0879484,11.2024622 22.8122124,10.2495238 22.3770811,9.41740885 C22.0096304,8.71033025 21.5311949,8.08885686 21.0022161,7.5395114 C19.7085391,6.22878773 18.1248033,5.34914514 16.4847932,4.79208537 C16.3057219,5.0729523 16.126126,5.3533772 15.9505252,5.63713068 L15.9364202,5.65929418 C16.6282723,5.98689605 17.2812767,6.43453968 17.8536627,6.99309919 C18.5402859,7.66423153 19.1095162,8.54834153 19.3104021,9.57807399 C19.4183485,10.1714421 19.4174525,10.8043552 19.2611006,11.3862381 L11.9082308,9.8693415 C11.8727256,9.68345662 11.7406531,9.51920433 11.5692637,9.51411985 C11.4176327,9.49295073 11.2843201,9.60700453 11.208607,9.74999338 L10.4459213,9.59940377 L10.4117994,9.84224583 L11.1561648,9.98056538 C11.2111576,10.1074357 11.2527267,10.2586494 11.374576,10.3204235 C11.5503321,10.4353352 11.7740462,10.3348353 11.8704859,10.14024 L23.9596286,12.5988077 L24,12.3638728 L22.165752,11.9854676 L22.165752,11.9854676 Z M8.89053668,4.22196795 C9.37979969,4.13478278 9.87326437,4.07104733 10.3678921,4.04084326 C10.4557643,4.01656302 10.546656,4.02152498 10.6364275,4.01780388 C11.3382491,3.99184145 12.0410376,3.9930162 12.7425634,4.02966956 C14.0087479,4.13352816 15.2685201,4.37747664 16.4899654,4.78413082 L16.4847932,4.79208537 C16.3057219,5.0729523 16.126126,5.3533772 15.9505252,5.63713068 C15.8979095,5.64838904 15.8518532,5.60979453 15.8049909,5.59035716 C14.8782872,5.1468719 13.8918306,4.88943614 12.8989602,4.75012714 C11.2658438,4.55617408 9.59389173,4.7120098 8.02719053,5.2948144 C6.87369871,5.72748129 5.75977596,6.39464515 4.89961744,7.40073945 C4.29004641,8.12368957 3.82203177,9.05892317 3.75850609,10.0836361 C3.69939451,10.5719787 3.80021412,11.0594769 3.88939725,11.5333707 L0.020874755,12.3242647 C0.0115251086,11.5326622 0.189648247,10.7494749 0.473117831,10.033337 C1.03694218,8.63895766 2.01465978,7.52488859 3.10407508,6.67189906 C3.84071511,6.09830017 4.63698919,5.6303502 5.46403678,5.25929445 C6.56585339,4.7597212 7.72028181,4.41838752 8.89053668,4.22196795 Z M0,13.0293582 C0.710616906,13.0238247 1.42129023,13.0283388 2.13193566,13.0270581 C2.13263926,13.0575956 2.134047,13.1186697 2.1347506,13.1492068 C2.65110412,13.0187998 3.18179648,12.96334 3.70991189,12.9971483 C4.09445677,13.0379766 4.44752343,13.229098 4.79142217,13.4188205 C4.40374998,13.6968811 4.00926595,13.9646712 3.63094847,14.2588715 C3.20937518,13.8813124 2.63640602,13.880978 2.14477119,14.0461717 C2.13863544,14.1071777 2.13286607,14.1683935 2.13234237,14.2301617 C2.13259117,15.6489399 2.13293257,17.0677439 2.13219812,18.4865505 C1.42183826,18.4862924 0.711487356,18.4873073 0.00113286835,18.4860293 C-0.00037701317,16.6671307 0.00188214749,14.8482411 0,13.0293582 Z M5.52946757,13.0295978 C6.15516274,13.0234836 6.78093962,13.0285261 7.40668498,13.027017 C8.33402065,13.0209118 9.27654268,13.1595332 10.1383974,13.5731949 C10.6736759,13.8360527 11.1914322,14.2244689 11.5017609,14.809253 C11.7374367,15.263516 11.8198356,15.8467496 11.634828,16.3437904 C11.4176534,16.9400892 10.9525516,17.3535383 10.4791552,17.6625417 C9.61135286,18.2010313 8.64688243,18.487333 7.66524465,18.5353898 L7.66354383,19.6604533 L5.5292201,20 L5.52946757,13.0295978 Z M13.116608,13.030606 C15.5585852,13.0219565 18.0007158,13.0295514 20.4427654,13.0268036 C21.1572024,13.0302319 21.883525,13.035477 22.5785066,13.249819 C22.7785229,13.3262278 23.0452722,13.4170899 23.0978825,13.6867266 C23.1030978,15.2865665 23.0998288,16.886776 23.099472,18.4867676 C22.3887094,18.4865961 21.6779825,18.4862581 20.9672759,18.4869413 C20.9671219,16.8994179 20.9643331,15.3118386 20.9686643,13.7243712 C20.8395467,13.5944543 20.655476,13.5999968 20.4951628,13.5773087 C20.056817,13.5640747 19.6181198,13.5735171 19.1797008,13.5720848 C19.1797973,15.2103374 19.1812795,16.8486026 19.1789592,18.4868641 C18.4671907,18.4860943 17.7554537,18.487079 17.0437303,18.4863592 C17.0416233,17.1741048 17.0434152,15.8618573 17.0428299,14.5496187 C17.0371352,14.2628721 17.0552213,13.9750491 17.0320604,13.6892307 C16.831808,13.5916167 16.61244,13.5724918 16.3977203,13.5712978 C16.0164751,13.5705843 15.6352735,13.5716128 15.2541011,13.5708461 C15.2522337,15.2096532 15.2564011,16.8484952 15.2520123,18.4872969 C14.5818215,18.4863037 13.9116428,18.485768 13.2414951,18.4876182 L13.1124056,18.4870248 C13.1234315,16.6785383 13.1150453,14.8392585 13.116608,13.030606 Z M7.66674586,13.6293443 C8.21333091,13.6929541 8.70742128,14.0511524 9.08077443,14.5044054 C9.40274773,14.8971277 9.6303401,15.4451301 9.55171054,15.9970667 C9.46576407,16.5500019 9.13401855,16.9991741 8.76097045,17.3335385 C8.43696559,17.6093851 8.07055969,17.8474997 7.66664897,17.9099172 C7.66525672,16.4830549 7.66506683,15.0561872 7.66674586,13.6293443 Z"/>
  </g>
</svg>
